<svg width="38" height="38" viewBox="0 0 38 38" fill="none" xmlns="http://www.w3.org/2000/svg">
<path d="M31.8663 2.15454L35.0167 5.36255L35.7042 6.06274L35.0167 6.76392L23.1036 18.8958L35.0167 31.0295L35.7042 31.7297L35.0167 32.4299L31.8663 35.6389L31.1524 36.3655L30.4395 35.6389L18.5528 23.5315L6.66611 35.6389L5.95322 36.3655L5.23935 35.6389L2.08896 32.4299L1.40146 31.7297L2.08896 31.0295L14.0011 18.8958L2.08896 6.76392L1.40146 6.06274L2.08896 5.36255L5.23935 2.15454L5.95322 1.427L6.66611 2.15454L18.5528 14.26L30.4395 2.15454L31.1524 1.427L31.8663 2.15454Z" fill="black" stroke="black" stroke-width="2"/>
</svg>
