<svg width="54" height="55" viewBox="0 0 54 55" fill="none" xmlns="http://www.w3.org/2000/svg">
<rect width="54" height="55" fill="#E26666"/>
<path d="M40.3135 10.7581L43.4639 13.9661L44.1514 14.6663L43.4639 15.3675L31.5508 27.4993L43.4639 39.6331L44.1514 40.3333L43.4639 41.0335L40.3135 44.2425L39.5996 44.9691L38.8867 44.2425L27 32.1351L15.1133 44.2425L14.4004 44.9691L13.6865 44.2425L10.5361 41.0335L9.84863 40.3333L10.5361 39.6331L22.4482 27.4993L10.5361 15.3675L9.84863 14.6663L10.5361 13.9661L13.6865 10.7581L14.4004 10.0306L15.1133 10.7581L27 22.8636L38.8867 10.7581L39.5996 10.0306L40.3135 10.7581Z" fill="black" stroke="black" stroke-width="2"/>
</svg>
